@startuml ClassSN

left to right direction

' --------------- ACTOR ---------------

class User {
    + ID: string
    + fullname: string
    + phone_number: string
    + address: string
    + gender: string
    + dateOfBirth: string
    + password: string

    'Method
    + ChangePassword(): void
    + ForgotPassword(): void
    + UpdateProfile(): void

}

class Manager {
    + citizen_id: string
    'Method
    + ChangeInfo(): void
    
}

class SaleStaff {
    + citizen_id: string
    + dateOfIssue: date
    + placeOfIssue: string
    'Method
    + PlaceOrderForCustomer(): void
}

class Customer {
    'Method
    + ChangeInfo(): void
    + ViewOrderHistory(): void
}

' --------------- UC ---------------
class Product {
    + ID: string
    + name: string
    + price: double
    + unit: string
    + material: string
    + dimension: string
    + standard: string
    + color: string
    + type: string
    + brand: string
    + warranty_period : string
    + description: string
    + image: list<string>
    + active: bool
    'Method
}

'--- Export ---
class Cart {
    + ID: string
    + totalPrice: double
    'Method
    + AddItem(): void
    + RemoveItem(): void
    + CalculateTotal(): void
    + ClearCart(): void
}   

class CartItem {
    + ID: string
    + quantity: int
    + price: double
}

class Order {
    + ID: string
    + customer_phone_number: string
    + total_price: double
    + order_date: date
    + order_status: int
    'Method
    + PlaceOrder(): void
    + CancelOrder(): void
    + UpdateStatus(): void
}

class OrderItem {
    + ID: string
    + product_name: string
    + price_at_order: double
    + subtotal: double
    + quantity: int
    'Method
}

class Invoice {
    + ID: string
    + Invoice_Date: date
    + total_price: double
    + Payment_Status: string
    + Payment_Method: string
}


'--- Import ---
class Supplier {
    + ID: string
    + display_name: string
    + address: string
    + email: string
    + phone_number: string
    + image: string
    + active: bool
    'Method
}

class GoodsReceived {
    + ID: string
    + receipt_date: date
    + total_price: double
    + total_quantity: double
    + note: string
    'Method
}

class GoodsReceivedItem {
    + ID: string
    + quantity: int
    + import_price: double
    + total_price: double
}

class Category {
    + ID: string
    + parent_id: int
    + name: string
    + room_type: string 
    + usage_type : string
    + description: string
    + active: bool
}

' class Image {
'     + ID: string
'     + image_url: string
'     + image_type: string
'     + description: string
' }

' class ProductImage {
'     + ID: string
'     + purpose : string
' }

'--------------------Connection---------------------


Product "0..*" -up-- "1" Category
Product "0..*" -down- "1..*" Cart
(Cart, Product) . CartItem
Product "0..*" -down-- "0..*" Order
(Product, Order) .. OrderItem
Product "0..*" -left-- "0..*" GoodsReceived
(GoodsReceived, Product) . GoodsReceivedItem

GoodsReceived "1..n" -up-- "1" Supplier
GoodsReceived "0..*" -up-- "1" Manager: Manage

Cart "1" -down-- "1" Customer
Cart "1" -right- "1" Order : Checkout

Order "0..*" -left-- "1" Customer: has 
Order "0..*" -right-- "1" SaleStaff: created
Order "1" -up-- "0..1" Invoice: has

Category "1..*" -right-- "1" Manager

Customer --|> User
SaleStaff --|> User
Manager --|> User

@enduml
